HIERARCHY
ROOT Hips
{
 OFFSET 0.000000 0.000000 0.000000
 CHANNELS 6 Xposition Yposition Zposition Yrotation Xrotation Zrotation
 JOINT Chest
 {
  OFFSET 0.000000 12.953391 -0.028419
  CHANNELS 3 Yrotation Xrotation Zrotation
  JOINT Chest2
  {
   OFFSET 0.000000 10.280254 0.051622
   CHANNELS 3 Yrotation Xrotation Zrotation
   JOINT Chest3
   {
    OFFSET 0.000000 9.287180 0.000000
    CHANNELS 3 Yrotation Xrotation Zrotation
    JOINT Chest4
    {
     OFFSET 0.000000 9.287180 0.000000
     CHANNELS 3 Yrotation Xrotation Zrotation
     JOINT Neck
     {
      OFFSET 0.000000 13.296264 0.000000
      CHANNELS 3 Yrotation Xrotation Zrotation
      JOINT Head
      {
       OFFSET 0.000000 8.959264 0.099003
       CHANNELS 3 Yrotation Xrotation Zrotation
       End Site
       {
        OFFSET 0.000000 17.121337 0.039303
       }
      }
     }
     JOINT RightCollar
     {
      OFFSET -3.193511 7.451388 0.000000
      CHANNELS 3 Yrotation Xrotation Zrotation
      JOINT RightShoulder
      {
       OFFSET -15.792092 0.000000 0.000000
       CHANNELS 3 Yrotation Xrotation Zrotation
       JOINT RightElbow
       {
        OFFSET -31.151839 0.000000 0.000000
        CHANNELS 3 Yrotation Xrotation Zrotation
        JOINT RightWrist
        {
         OFFSET -25.536298 0.000000 0.002321
         CHANNELS 3 Yrotation Xrotation Zrotation
         End Site
         {
          OFFSET -19.133213 0.000000 0.000000
         }
        }
       }
      }
     }
     JOINT LeftCollar
     {
      OFFSET 3.193511 7.451388 0.000000
      CHANNELS 3 Yrotation Xrotation Zrotation
      JOINT LeftShoulder
      {
       OFFSET 15.792092 0.000000 0.000000
       CHANNELS 3 Yrotation Xrotation Zrotation
       JOINT LeftElbow
       {
        OFFSET 31.151839 0.000000 0.000000
        CHANNELS 3 Yrotation Xrotation Zrotation
        JOINT LeftWrist
        {
         OFFSET 25.536298 0.000000 0.002321
         CHANNELS 3 Yrotation Xrotation Zrotation
         End Site
         {
          OFFSET 19.133213 0.000000 0.000000
         }
        }
       }
      }
     }
    }
   }
  }
 }
 JOINT RightHip
 {
  OFFSET -10.745749 0.139252 0.014209
  CHANNELS 3 Yrotation Xrotation Zrotation
  JOINT RightKnee
  {
   OFFSET 0.000000 -43.743899 -0.006071
   CHANNELS 3 Yrotation Xrotation Zrotation
   JOINT RightAnkle
   {
    OFFSET 0.000000 -43.214199 0.089931
    CHANNELS 3 Yrotation Xrotation Zrotation
    JOINT RightToe
    {
     OFFSET 0.000000 -9.699830 19.151588
     CHANNELS 3 Yrotation Xrotation Zrotation
     End Site
     {
      OFFSET 0.000000 -1.292898 4.893873
     }
    }
   }
  }
 }
 JOINT LeftHip
 {
  OFFSET 10.745749 0.139252 0.014209
  CHANNELS 3 Yrotation Xrotation Zrotation
  JOINT LeftKnee
  {
   OFFSET 0.000000 -43.743899 -0.006071
   CHANNELS 3 Yrotation Xrotation Zrotation
   JOINT LeftAnkle
   {
    OFFSET 0.000000 -43.214199 0.089931
    CHANNELS 3 Yrotation Xrotation Zrotation
    JOINT LeftToe
    {
     OFFSET 0.000000 -9.699830 19.151588
     CHANNELS 3 Yrotation Xrotation Zrotation
     End Site
     {
      OFFSET 0.000000 -1.292898 4.893873
     }
    }
   }
  }
 }
}
MOTION
Frames: 8
Frame Time: 0.016667
-15.038626 98.067720 56.045332 71.565767 -11.459391 2.032973 0.744578 9.926399 4.951205 0.223332 4.419449 2.176026 0.223332 4.419449 2.176026 0.151655 3.315432 1.629592 -14.431565 28.435045 3.600583 -26.346724 18.377424 8.988247 9.966459 2.501536 5.879677 9.400149 -17.464785 64.120269 1.042176 24.986517 -6.994555 9.127713 21.507071 -38.336943 -1.733460 -2.740147 -13.843748 -1.796879 -0.963092 -75.274437 -13.197539 25.175658 -4.127336 0.929423 12.919134 1.690105 -5.951303 14.136227 2.998061 -1.851535 2.496504 -0.187735 -5.305557 -7.490332 -3.534718 -0.000000 -0.000000 0.000000 27.993810 3.712825 11.756047 1.059046 14.232018 -0.025311 4.203135 -2.032898 -2.549705 0.000000 -0.000000 -0.000000
-15.081938 98.108643 55.787415 71.274963 -11.147338 2.311205 0.848596 9.845249 4.867320 0.272049 4.384319 2.136935 0.272042 4.384311 2.136934 0.188576 3.289229 1.599963 -14.409581 28.428284 3.557755 -26.300330 18.351076 8.911203 9.899586 2.528940 5.927985 9.667936 -17.408086 63.905130 0.971208 24.729925 -6.999547 9.149096 21.565884 -38.373276 -1.787294 -2.693368 -13.755357 -1.660736 -0.989507 -75.423461 -13.441176 25.017382 -4.054027 0.956938 12.930536 1.633126 -5.854431 13.731173 2.551949 -2.323799 2.405513 -0.047853 -4.660642 -7.202150 -3.459533 -0.000000 0.000000 0.000000 27.767577 3.621056 11.318812 1.562011 14.296930 -0.199037 4.996668 -2.146328 -2.878380 0.000000 -0.000000 0.000000
-15.125251 98.149565 55.529498 70.986013 -10.833908 2.587527 0.952564 9.764287 4.783108 0.320749 4.349262 2.097738 0.320744 4.349257 2.097737 0.225491 3.263088 1.570260 -14.387708 28.421565 3.514831 -26.254097 18.324757 8.834009 9.832763 2.556300 5.976355 9.935093 -17.350180 63.689963 0.900603 24.473329 -7.003633 9.170422 21.624652 -38.409698 -1.840965 -2.646546 -13.666940 -1.524876 -1.015300 -75.572916 -13.685047 24.859097 -3.980837 0.984649 12.941975 1.576284 -5.755341 13.325291 2.106877 -2.796845 2.317787 0.092159 -4.015732 -6.914327 -3.382106 0.000000 0.000000 0.000000 27.541466 3.524147 10.883053 2.065006 14.361180 -0.372531 5.790146 -2.258517 -3.209380 0.000000 -0.000000 -0.000000
-15.177049 98.215350 55.250931 70.721884 -10.518868 2.871016 1.036285 9.699356 4.699582 0.360282 4.321097 2.059240 0.360282 4.321097 2.059240 0.255502 3.242081 1.541146 -14.355145 28.403237 3.474251 -26.190057 18.275934 8.761495 9.777421 2.568912 6.029144 10.201276 -17.317456 63.444427 0.831022 24.227992 -7.016626 9.193478 21.692975 -38.458757 -1.901376 -2.609358 -13.582865 -1.400077 -1.030657 -75.699893 -13.949115 24.689464 -3.924022 1.011960 12.956916 1.529191 -5.734442 12.912738 1.633140 -3.192021 2.224457 0.217127 -3.404985 -6.616522 -3.301441 0.000000 0.000000 0.000000 27.387527 3.413314 10.454357 2.603394 14.403197 -0.484311 6.157425 -2.406818 -3.486764 0.000000 0.000000 0.000000
-15.243123 98.326663 54.941854 70.478423 -10.193765 3.180031 1.093846 9.656131 4.612256 0.388052 4.302267 2.019535 0.388051 4.302266 2.019535 0.276664 3.228023 1.511203 -14.305043 28.366716 3.436626 -26.096681 18.191483 8.694898 9.741635 2.561872 6.089872 10.475820 -17.325861 63.155298 0.751837 23.990659 -7.047054 9.220513 21.777481 -38.529740 -1.972770 -2.586940 -13.506766 -1.272402 -1.026801 -75.800162 -14.257076 24.475384 -3.889784 1.038584 12.973785 1.497217 -5.850963 12.480130 1.101124 -3.471817 2.117483 0.314954 -2.810675 -6.299500 -3.212136 0.000000 0.000000 -0.000000 27.345083 3.292506 10.022014 3.297243 14.378106 -0.498411 5.863536 -2.587539 -3.673915 0.000000 0.000000 0.000000
-15.317683 98.462838 54.612128 70.260002 -9.867214 3.496516 1.130898 9.628714 4.525763 0.406543 4.290239 1.980569 0.406541 4.290236 1.980569 0.290838 3.219034 1.481873 -14.244334 28.318647 3.401103 -25.985716 18.084533 8.632452 9.717548 2.540177 6.155094 10.749948 -17.359014 62.835317 0.673652 23.764522 -7.086603 9.249379 21.871431 -38.613361 -2.050814 -2.574166 -13.434779 -1.155932 -1.012734 -75.878084 -14.584298 24.249407 -3.870951 1.064620 12.994194 1.474925 -6.044018 12.037262 0.544214 -3.673733 2.003249 0.398353 -2.250077 -5.973134 -3.119504 0.000000 -0.000000 -0.000000 27.375387 3.161760 9.595581 4.026305 14.330698 -0.451366 5.143672 -2.804607 -3.805004 0.000000 0.000000 0.000000
-15.391844 98.586744 54.270688 70.101736 -9.565222 3.775665 1.144638 9.615546 4.454919 0.414239 4.284356 1.948965 0.414239 4.284356 1.948965 0.296852 3.214628 1.458134 -14.182906 28.267214 3.367921 -25.874117 17.971910 8.574507 9.692721 2.503928 6.218800 10.996043 -17.395168 62.493183 0.628603 23.570577 -7.120259 9.275295 21.964370 -38.694316 -2.129501 -2.565298 -13.360030 -1.103267 -1.005791 -75.923218 -14.878103 24.098599 -3.863425 1.089853 13.026421 1.455601 -6.214685 11.614896 0.025651 -3.831685 1.894127 0.489104 -1.809813 -5.655509 -3.039446 0.000000 0.000000 0.000000 27.433836 3.007742 9.210818 4.466172 14.374908 -0.388461 4.277192 -3.108984 -3.926469 -0.000000 0.000000 -0.000000
-15.461316 98.685306 53.917262 70.018706 -9.294535 4.003934 1.128250 9.617734 4.408676 0.407927 4.285071 1.928821 0.407930 4.285074 1.928821 0.292263 3.215134 1.443077 -14.121410 28.211172 3.334094 -25.762535 17.850813 8.516182 9.667183 2.450350 6.279093 11.215495 -17.429524 62.112924 0.622693 23.416840 -7.140178 9.314522 22.062954 -38.766164 -2.208123 -2.556809 -13.280890 -1.158316 -1.007436 -75.928816 -15.119689 24.045379 -3.872227 1.113003 13.064985 1.440405 -6.345073 11.223627 -0.443929 -3.926046 1.791495 0.603145 -1.541212 -5.349768 -2.986635 0.000000 0.000000 0.000000 27.546733 2.812142 8.872922 4.392064 14.558461 -0.321724 3.229070 -3.559456 -4.040061 0.000000 0.000000 0.000000
